<svg version="1.1" preserveAspectRatio="none" xmlns="http://www.w3.org/2000/svg" width="500" height="500" viewBox="0 0 500 500"><rect width="100%" height="100%" fill="#FFFFFF" fill-opacity="1"/><svg viewBox="368.6693 155.4928 384.392 314.0429" width="333" height="272.05635314990946" x="83.5px" y="113.9718px" xmlns="http://www.w3.org/2000/svg" xmlns:xlink="http://www.w3.org/1999/xlink" preserveAspectRatio="none"><defs></defs><style>.companyName {fill:#0000FF;fill-opacity:1;}.icon1 {fill:#0000FF;fill-opacity:1;}.icon2 {fill:#A9FF94;fill-opacity:1;}.icon3 {fill:#000084;fill-opacity:1;}.icon3-str {stroke:#000084;stroke-opacity:1;}.text {fill:#0000FF;fill-opacity:1;}</style><g opacity="1" transform="rotate(0 491.3655 447.0357)">
<svg width="138.9997" height="22.5" x="491.3655" y="447.0357" version="1.1" preserveAspectRatio="none" viewBox="2.96 -30.28 188.52 30.520000000000003">
  <g transform="matrix(1 0 0 1 0 0)" class="text"><path id="id-6izo4zJp10" d="M3.64 0L3.64-21.20L7.48-21.20L7.48 0L3.64 0ZM5.56-25.28Q4.44-25.28 3.70-26Q2.96-26.72 2.96-27.76L2.96-27.76Q2.96-28.80 3.70-29.54Q4.44-30.28 5.56-30.28L5.56-30.28Q6.68-30.28 7.42-29.58Q8.16-28.88 8.16-27.84L8.16-27.84Q8.16-26.76 7.42-26.02Q6.68-25.28 5.56-25.28L5.56-25.28Z M28.12-21.40Q32.16-21.40 34.54-19.06Q36.92-16.72 36.92-12.20L36.92-12.20L36.92 0L33.08 0L33.08-11.76Q33.08-14.84 31.60-16.40Q30.12-17.96 27.36-17.96L27.36-17.96Q24.24-17.96 22.44-16.14Q20.64-14.32 20.64-10.92L20.64-10.92L20.64 0L16.80 0L16.80-21.20L20.48-21.20L20.48-18Q21.64-19.64 23.62-20.52Q25.60-21.40 28.12-21.40L28.12-21.40Z M46.04 0L46.04-21.20L49.88-21.20L49.88 0L46.04 0ZM47.96-25.28Q46.84-25.28 46.10-26Q45.36-26.72 45.36-27.76L45.36-27.76Q45.36-28.80 46.10-29.54Q46.84-30.28 47.96-30.28L47.96-30.28Q49.08-30.28 49.82-29.58Q50.56-28.88 50.56-27.84L50.56-27.84Q50.56-26.76 49.82-26.02Q49.08-25.28 47.96-25.28L47.96-25.28Z M69.92-4L71.12-1.24Q70.28-0.52 69.04-0.14Q67.80 0.24 66.48 0.24L66.48 0.24Q63.28 0.24 61.52-1.48Q59.76-3.20 59.76-6.40L59.76-6.40L59.76-18.04L56.16-18.04L56.16-21.20L59.76-21.20L59.76-25.84L63.60-25.84L63.60-21.20L69.68-21.20L69.68-18.04L63.60-18.04L63.60-6.56Q63.60-4.84 64.46-3.92Q65.32-3 66.92-3L66.92-3Q68.68-3 69.92-4L69.92-4Z M77.76 0L77.76-21.20L81.60-21.20L81.60 0L77.76 0ZM79.68-25.28Q78.56-25.28 77.82-26Q77.08-26.72 77.08-27.76L77.08-27.76Q77.08-28.80 77.82-29.54Q78.56-30.28 79.68-30.28L79.68-30.28Q80.80-30.28 81.54-29.58Q82.28-28.88 82.28-27.84L82.28-27.84Q82.28-26.76 81.54-26.02Q80.80-25.28 79.68-25.28L79.68-25.28Z M98.64-21.40Q103.04-21.40 105.38-19.24Q107.72-17.08 107.72-12.80L107.72-12.80L107.72 0L104.08 0L104.08-2.80Q103.12-1.32 101.34-0.54Q99.56 0.24 97.12 0.24L97.12 0.24Q93.56 0.24 91.42-1.48Q89.28-3.20 89.28-6L89.28-6Q89.28-8.80 91.32-10.50Q93.36-12.20 97.80-12.20L97.80-12.20L103.88-12.20L103.88-12.96Q103.88-15.44 102.44-16.76Q101-18.08 98.20-18.08L98.20-18.08Q96.32-18.08 94.52-17.46Q92.72-16.84 91.48-15.80L91.48-15.80L89.88-18.68Q91.52-20 93.80-20.70Q96.08-21.40 98.64-21.40L98.64-21.40ZM97.76-2.72Q99.96-2.72 101.56-3.70Q103.16-4.68 103.88-6.48L103.88-6.48L103.88-9.44L97.96-9.44Q93.08-9.44 93.08-6.16L93.08-6.16Q93.08-4.56 94.32-3.64Q95.56-2.72 97.76-2.72L97.76-2.72Z M127.56-4L128.76-1.24Q127.92-0.52 126.68-0.14Q125.44 0.24 124.12 0.24L124.12 0.24Q120.92 0.24 119.16-1.48Q117.40-3.20 117.40-6.40L117.40-6.40L117.40-18.04L113.80-18.04L113.80-21.20L117.40-21.20L117.40-25.84L121.24-25.84L121.24-21.20L127.32-21.20L127.32-18.04L121.24-18.04L121.24-6.56Q121.24-4.84 122.10-3.92Q122.96-3 124.56-3L124.56-3Q126.32-3 127.56-4L127.56-4Z M135.40 0L135.40-21.20L139.24-21.20L139.24 0L135.40 0ZM137.32-25.28Q136.20-25.28 135.46-26Q134.72-26.72 134.72-27.76L134.72-27.76Q134.72-28.80 135.46-29.54Q136.20-30.28 137.32-30.28L137.32-30.28Q138.44-30.28 139.18-29.58Q139.92-28.88 139.92-27.84L139.92-27.84Q139.92-26.76 139.18-26.02Q138.44-25.28 137.32-25.28L137.32-25.28Z M163.56-21.20L167.32-21.20L158.04 0L154.12 0L144.84-21.20L148.84-21.20L156.12-4.20L163.56-21.20Z M191.48-10.48Q191.48-10.04 191.40-9.32L191.40-9.32L174.20-9.32Q174.56-6.52 176.66-4.82Q178.76-3.12 181.88-3.12L181.88-3.12Q185.68-3.12 188.00-5.68L188.00-5.68L190.12-3.20Q188.68-1.52 186.54-0.64Q184.40 0.24 181.76 0.24L181.76 0.24Q178.40 0.24 175.80-1.14Q173.20-2.52 171.78-5Q170.36-7.48 170.36-10.60L170.36-10.60Q170.36-13.68 171.74-16.16Q173.12-18.64 175.54-20.02Q177.96-21.40 181.00-21.40L181.00-21.40Q184.04-21.40 186.42-20.02Q188.80-18.64 190.14-16.16Q191.48-13.68 191.48-10.48L191.48-10.48ZM181.00-18.16Q178.24-18.16 176.38-16.48Q174.52-14.80 174.20-12.08L174.20-12.08L187.80-12.08Q187.48-14.76 185.62-16.46Q183.76-18.16 181.00-18.16L181.00-18.16Z"/></g>
</svg>
</g><g opacity="1" transform="rotate(0 368.6693 373.0357)">
<svg width="384.392" height="50" x="368.6693" y="373.0357" version="1.1" preserveAspectRatio="none" viewBox="1.56 -28.48 222.64 28.96">
  <g transform="matrix(1 0 0 1 0 0)" class="companyName"><path id="id-D6z1nYkh7" d="M22.24-6.24L22.24-14.44L28.16-14.44L28.16-3.08Q25.88-1.36 22.88-0.44Q19.88 0.48 16.84 0.48L16.84 0.48Q12.48 0.48 9-1.38Q5.52-3.24 3.54-6.54Q1.56-9.84 1.56-14L1.56-14Q1.56-18.16 3.54-21.46Q5.52-24.76 9.04-26.62Q12.56-28.48 16.96-28.48L16.96-28.48Q20.64-28.48 23.64-27.24Q26.64-26 28.68-23.64L28.68-23.64L24.52-19.80Q21.52-22.96 17.28-22.96L17.28-22.96Q14.60-22.96 12.52-21.84Q10.44-20.72 9.28-18.68Q8.12-16.64 8.12-14L8.12-14Q8.12-11.40 9.28-9.36Q10.44-7.32 12.50-6.18Q14.56-5.04 17.20-5.04L17.20-5.04Q20-5.04 22.24-6.24L22.24-6.24Z M37-8.76L37-13.76L48.32-13.76L48.32-8.76L37-8.76Z M76.92 0L67.96-11L64.20-7.08L64.20 0L57.76 0L57.76-28L64.20-28L64.20-14.92L76.60-28L83.80-28L72.20-15.52L84.48 0L76.92 0Z M111.12 0L108.64-6L95.64-6L93.16 0L86.52 0L99-28L105.40-28L117.92 0L111.12 0ZM97.72-10.92L106.60-10.92L102.16-21.64L97.72-10.92Z M144.20-28L150.60-28L150.60 0L145.28 0L131.32-17L131.32 0L124.92 0L124.92-28L130.28-28L144.20-11L144.20-28Z M182.24 0L179.76-6L166.76-6L164.28 0L157.64 0L170.12-28L176.52-28L189.04 0L182.24 0ZM168.84-10.92L177.72-10.92L173.28-21.64L168.84-10.92Z M196.04 0L196.04-28L208.76-28Q213.32-28 216.82-26.26Q220.32-24.52 222.26-21.36Q224.20-18.20 224.20-14L224.20-14Q224.20-9.80 222.26-6.64Q220.32-3.48 216.82-1.74Q213.32 0 208.76 0L208.76 0L196.04 0ZM202.52-5.32L208.44-5.32Q212.64-5.32 215.14-7.66Q217.64-10 217.64-14L217.64-14Q217.64-18 215.14-20.34Q212.64-22.68 208.44-22.68L208.44-22.68L202.52-22.68L202.52-5.32Z"/></g>
</svg>
</g><g opacity="1" transform="rotate(0 483.9869 155.4928)">
<svg width="153.7568" height="177.5429" x="483.9869" y="155.4928" version="1.1" preserveAspectRatio="none" viewBox="11.142101287841797 5.904300212860107 67.71580505371094 78.19140625">
  <g transform="matrix(1 0 0 1 0 0)" class="icon1"><g><g><g><g><g><polygon points="45.3652,66.1009979 22.0251999,41.3865013 45.0445175,52.5485992 71.8062973,21.3808994 45,5.9043002        11.1421013,25.4521008 11.1421013,64.5477982 45,84.0957031 78.8579025,64.5477982 78.8579025,27.0942993      "></polygon></g></g></g></g></g></g>
</svg>
</g></svg></svg>